<?xml version="1.0" standalone="no"?>
<!DOCTYPE svg PUBLIC "-//W3C//DTD SVG 20010904//EN"
 "http://www.w3.org/TR/2001/REC-SVG-20010904/DTD/svg10.dtd">
<svg version="1.0" xmlns="http://www.w3.org/2000/svg"
 width="512.000000pt" height="512.000000pt" viewBox="0 0 512.000000 512.000000"
 preserveAspectRatio="xMidYMid meet">

<g transform="translate(0.000000,512.000000) scale(0.100000,-0.100000)"
fill="#000000" stroke="none">
<path d="M2527 4818 c-65 -478 -104 -1004 -123 -1665 -5 -194 -9 -233 -21
-233 -8 0 -51 39 -96 87 -261 277 -518 482 -834 667 -17 9 -7 -17 43 -116 116
-232 361 -524 617 -737 48 -40 87 -79 87 -86 0 -10 -54 -14 -232 -19 -485 -14
-985 -44 -1328 -81 -225 -24 -530 -67 -530 -75 0 -8 305 -51 530 -75 344 -37
843 -67 1328 -81 211 -6 233 -8 230 -23 -2 -9 -46 -57 -98 -106 -249 -235
-466 -506 -639 -798 l-23 -37 25 9 c64 25 196 97 283 157 192 129 362 283 525
475 56 65 107 119 114 119 10 0 14 -57 19 -232 14 -486 44 -980 82 -1333 23
-219 66 -525 74 -525 4 0 19 87 34 193 63 462 104 1015 122 1659 4 164 10 238
18 241 6 3 52 -39 102 -93 123 -131 265 -264 388 -361 89 -72 313 -226 419
-288 l37 -23 -9 25 c-90 236 -347 565 -631 808 -66 56 -120 108 -120 115 0 10
16 14 58 14 244 0 848 29 1177 55 347 28 855 90 855 105 0 15 -512 77 -855
104 -343 28 -932 56 -1177 56 -81 0 -76 17 35 120 117 108 276 279 368 395 64
81 220 310 278 408 l23 37 -25 -9 c-236 -90 -565 -347 -808 -631 -56 -66 -107
-120 -114 -120 -10 0 -14 58 -19 238 -18 644 -59 1197 -122 1660 -15 105 -30
192 -34 192 -4 0 -19 -87 -33 -192z"/>
</g>
</svg>
